<svg xmlns="http://www.w3.org/2000/svg" viewBox="0 0 192 128" width="192" height="128" role="img" aria-label="Exhaust — default" data-view="component"><title>Exhaust — default</title><path d="M96 16 L96 32" fill="none" stroke="#10233F" stroke-width="2.5" stroke-linejoin="miter" /><rect x="86" y="30" width="20" height="20" fill="#10233F" /><rect x="88" y="32" width="16" height="16" fill="#D9A441" /><rect x="88" y="32" width="16" height="2" fill="#FFFFFF" /><rect x="88" y="34" width="2" height="14" fill="#EAF2FA" /><rect x="102" y="34" width="2" height="14" fill="#61758F" /><rect x="90" y="46" width="14" height="2" fill="#61758F" /><rect x="76" y="48" width="40" height="44" fill="#10233F" /><rect x="78" y="50" width="36" height="40" fill="#D9A441" /><rect x="78" y="50" width="36" height="2" fill="#FFFFFF" /><rect x="78" y="52" width="2" height="38" fill="#EAF2FA" /><rect x="112" y="52" width="2" height="38" fill="#61758F" /><rect x="80" y="88" width="34" height="2" fill="#61758F" /><path d="M82 56 L110 56" fill="none" stroke="#61758F" stroke-width="3" stroke-linejoin="miter" /><path d="M82 64 L110 64" fill="none" stroke="#61758F" stroke-width="3" stroke-linejoin="miter" /><path d="M82 72 L110 72" fill="none" stroke="#61758F" stroke-width="3" stroke-linejoin="miter" /><path d="M82 80 L110 80" fill="none" stroke="#61758F" stroke-width="3" stroke-linejoin="miter" /></svg>