<svg xmlns="http://www.w3.org/2000/svg" viewBox="0 0 192 128" width="192" height="128" role="img" aria-label="Roller limit switch — rest" data-view="component"><title>Roller limit switch — rest</title><path d="M96 94 L96 112" fill="none" stroke="#10233F" stroke-width="2.5" stroke-linejoin="miter" stroke-dasharray="5 4"/><rect x="66" y="68" width="60" height="26" fill="#10233F" /><rect x="68" y="70" width="56" height="22" fill="#A8B9CC" /><rect x="68" y="70" width="56" height="2" fill="#FFFFFF" /><rect x="68" y="72" width="2" height="20" fill="#EAF2FA" /><rect x="122" y="72" width="2" height="20" fill="#61758F" /><rect x="70" y="90" width="54" height="2" fill="#61758F" /><rect x="70" y="73" width="6" height="6" fill="#10233F" /><rect x="71" y="74" width="4" height="3" fill="#EAF2FA" /><rect x="116" y="84" width="6" height="6" fill="#10233F" /><rect x="117" y="85" width="4" height="3" fill="#EAF2FA" /><g data-part="lever" transform="rotate(0 96 68)"><path d="M96 68 L124 38" fill="none" stroke="#10233F" stroke-width="10" stroke-linejoin="miter" /><path d="M96 68 L124 38" fill="none" stroke="#A8B9CC" stroke-width="5" stroke-linejoin="miter" /><circle cx="130" cy="32" r="10" fill="#A8B9CC" stroke="#10233F" stroke-width="3" /><circle cx="130" cy="32" r="4" fill="#EAF2FA" stroke="#10233F" stroke-width="2" /></g><path data-part="in-stub" d="M96 12 L96 42" fill="none" stroke="#10233F" stroke-width="2.5"/></svg>