<svg xmlns="http://www.w3.org/2000/svg" viewBox="0 0 192 128" width="192" height="128" role="img" aria-label="5/2 double-solenoid valve — rest" data-view="symbol"><title>5/2 double-solenoid valve — rest</title><rect x="48" y="40" width="48" height="48" fill="#FFFFFF" stroke="#10233F" stroke-width="2.5" /><rect x="96" y="40" width="48" height="48" fill="#FFFFFF" stroke="#10233F" stroke-width="2.5" /><path d="M72 86 L60 42" fill="none" stroke="#10233F" stroke-width="2.5" stroke-linejoin="miter" /><path d="M60.00 42.00 L64.16 46.32 L58.61 47.84 Z" fill="#10233F" stroke="#10233F" stroke-width="1" stroke-linejoin="miter" /><path d="M84 42 L92 86" fill="none" stroke="#10233F" stroke-width="2.5" stroke-linejoin="miter" /><path d="M92.00 86.00 L88.23 81.33 L93.89 80.30 Z" fill="#10233F" stroke="#10233F" stroke-width="1" stroke-linejoin="miter" /><path d="M52 88 L52 77" fill="none" stroke="#10233F" stroke-width="2.5" stroke-linejoin="miter" /><path d="M47 77 L57 77" fill="none" stroke="#10233F" stroke-width="2.5" stroke-linejoin="miter" /><path d="M120 86 L132 42" fill="none" stroke="#10233F" stroke-width="2.5" stroke-linejoin="miter" /><path d="M132.00 42.00 L133.39 47.84 L127.84 46.32 Z" fill="#10233F" stroke="#10233F" stroke-width="1" stroke-linejoin="miter" /><path d="M108 42 L100 86" fill="none" stroke="#10233F" stroke-width="2.5" stroke-linejoin="miter" /><path d="M100.00 86.00 L98.11 80.30 L103.77 81.33 Z" fill="#10233F" stroke="#10233F" stroke-width="1" stroke-linejoin="miter" /><path d="M140 88 L140 77" fill="none" stroke="#10233F" stroke-width="2.5" stroke-linejoin="miter" /><path d="M135 77 L145 77" fill="none" stroke="#10233F" stroke-width="2.5" stroke-linejoin="miter" /><path d="M108 16 L108 40" fill="none" stroke="#10233F" stroke-width="2.5" stroke-linejoin="miter" /><path d="M132 16 L132 40" fill="none" stroke="#10233F" stroke-width="2.5" stroke-linejoin="miter" /><path d="M100 88 L100 112" fill="none" stroke="#10233F" stroke-width="2.5" stroke-linejoin="miter" /><path d="M120 88 L120 112" fill="none" stroke="#10233F" stroke-width="2.5" stroke-linejoin="miter" /><path d="M140 88 L140 112" fill="none" stroke="#10233F" stroke-width="2.5" stroke-linejoin="miter" /><rect x="96" y="36" width="48" height="3" fill="#176BE8" data-part="active-position"/><path d="M44 64 L48 64" fill="none" stroke="#10233F" stroke-width="2.5"/><rect x="24" y="52" width="20" height="24" fill="#FFFFFF" stroke="#10233F" stroke-width="2.5"/><path d="M24 76 L44 52" fill="none" stroke="#10233F" stroke-width="2.5"/><path d="M8 64 L24 64" fill="none" stroke="#10233F" stroke-width="2" stroke-dasharray="4 3"/><path d="M144 64 L148 64" fill="none" stroke="#10233F" stroke-width="2.5"/><rect x="148" y="52" width="20" height="24" fill="#FFFFFF" stroke="#10233F" stroke-width="2.5"/><path d="M148 76 L168 52" fill="none" stroke="#10233F" stroke-width="2.5"/><path d="M168 64 L184 64" fill="none" stroke="#10233F" stroke-width="2" stroke-dasharray="4 3"/></svg>